<?xml version="1.0" standalone="no"?>
<!DOCTYPE svg PUBLIC "-//W3C//DTD SVG 20010904//EN"
 "http://www.w3.org/TR/2001/REC-SVG-20010904/DTD/svg10.dtd">
<svg version="1.0" xmlns="http://www.w3.org/2000/svg"
 width="600.000000pt" height="600.000000pt" viewBox="0 0 600.000000 600.000000"
 preserveAspectRatio="xMidYMid meet">

<g transform="translate(0.000000,600.000000) scale(0.100000,-0.100000)"
fill="#000000" stroke="none">
<path d="M2770 4326 c-153 -29 -375 -128 -540 -242 -284 -197 -519 -547 -520
-777 0 -95 51 -156 153 -185 75 -20 431 -28 549 -12 103 14 142 27 181 64 40
37 35 61 -15 81 -40 15 -47 15 -104 -4 -103 -32 -204 -44 -336 -38 -144 6
-208 21 -187 42 26 26 334 165 365 165 3 0 71 -31 151 -70 80 -38 149 -70 153
-70 5 0 12 5 15 11 10 15 -28 52 -102 101 -79 52 -80 59 -15 73 30 6 37 2 93
-54 82 -83 116 -80 52 5 -32 43 -30 61 10 67 36 6 45 -2 82 -73 32 -63 71 -98
93 -83 17 11 19 28 11 118 l-4 50 69 0 69 0 -2 -83 c-2 -69 0 -83 15 -89 27
-10 44 7 86 87 22 41 43 76 47 78 4 1 24 -1 44 -5 l37 -8 -35 -55 c-19 -30
-35 -58 -35 -62 0 -25 29 -11 84 41 63 61 92 73 126 51 13 -8 10 -14 -15 -35
-16 -14 -46 -35 -65 -47 -44 -28 -69 -58 -63 -75 9 -23 0 -26 208 81 49 25 93
46 98 46 31 0 369 -149 381 -169 8 -12 -9 -17 -94 -31 -136 -21 -349 -4 -449
36 -31 12 -47 13 -79 5 -45 -12 -56 -30 -42 -65 26 -70 145 -97 415 -97 312 1
418 31 471 133 35 68 -4 253 -79 378 -93 156 -211 299 -325 393 -312 257 -662
376 -952 323z"/>
<path d="M2859 3173 c-20 -21 -53 -63 -74 -93 -22 -30 -73 -95 -115 -145 -132
-155 -183 -244 -210 -365 -13 -59 -13 -193 0 -261 28 -145 130 -285 268 -366
l42 -25 -25 53 c-19 42 -25 70 -25 129 0 77 26 193 57 254 22 44 126 220 133
226 15 12 74 131 102 205 57 151 47 353 -20 405 -14 12 -40 20 -61 20 -30 0
-44 -7 -72 -37z"/>
<path d="M3180 2847 c0 -123 -49 -248 -165 -421 -106 -159 -135 -225 -142
-327 -7 -101 7 -162 43 -185 34 -23 120 -13 193 22 57 28 201 162 201 188 0 7
9 24 19 37 10 14 31 63 45 110 47 153 29 322 -51 468 -38 72 -97 147 -125 162
-17 9 -18 5 -18 -54z"/>
</g>
</svg>
